<svg width="18" height="18" viewBox="0 0 18 18" fill="none" xmlns="http://www.w3.org/2000/svg">
<rect width="18" height="18" rx="9" fill="#191925"/>
<rect width="18" height="18" rx="9" stroke="#B3BBC1"/>
<path d="M9.52578 3H8.47578V5.5H7.42578C6.67545 5.5 5.98224 5.8812 5.60718 6.5C5.23212 7.1188 5.23212 7.8812 5.60718 8.5C5.98224 9.1188 6.67566 9.5 7.42578 9.5H8.47578V11.5H4.80078V12.5H8.47578V15H9.52578V12.5H10.5758C11.3261 12.5 12.0193 12.1188 12.3944 11.5C12.7694 10.8812 12.7694 10.1188 12.3944 9.5C12.0193 8.8812 11.3259 8.5 10.5758 8.5H9.52578V6.5H13.2008V5.5H9.52578V3ZM10.5758 9.5C10.9508 9.5 11.2975 9.6906 11.4851 10C11.6726 10.3094 11.6726 10.6906 11.4851 11C11.2975 11.3094 10.9508 11.5 10.5758 11.5H9.52578V9.5H10.5758ZM8.47578 8.5H7.42578C7.05072 8.5 6.70401 8.3094 6.51648 8C6.32895 7.6906 6.32895 7.3094 6.51648 7C6.70401 6.6906 7.05072 6.5 7.42578 6.5H8.47578V8.5Z" fill="#D0D2D3"/>
</svg>
